# Blender 5.0.1
# www.blender.org
mtllib beetree.mtl
o tree
v 0.256066 0.600000 -0.256066
v 0.300000 0.000000 -0.300000
v 0.256066 0.600000 0.256066
v 0.300000 0.000000 0.300000
v -0.256066 0.600000 -0.256066
v -0.300000 0.000000 -0.300000
v -0.256066 0.600000 0.256066
v -0.300000 0.000000 0.300000
v 0.078639 0.000000 -0.950668
v -0.000000 0.600000 0.362132
v 0.091209 0.000000 0.955317
v 0.000000 0.600000 -0.362132
v -1.072372 0.000000 -0.059368
v 0.362132 0.600000 0.000000
v -0.362132 0.600000 -0.000000
v 0.850099 0.000000 -0.121123
v 0.000000 0.000000 0.000000
v -0.000000 2.600930 0.200493
v -0.000000 3.878915 0.236681
v -0.167358 3.878915 0.167358
v 0.236681 3.878915 0.000000
v 0.167358 3.878915 0.167358
v -0.236681 3.878915 -0.000000
v -0.167358 3.878915 -0.167358
v 0.000000 3.878915 -0.236681
v 0.167358 3.878915 -0.167358
v 0.000000 3.878915 0.000000
v 0.000000 2.600930 -0.200493
v 0.200493 2.600930 0.000000
v 0.141770 2.600930 -0.141770
v -0.141770 2.600930 0.141770
v -0.141770 2.600930 -0.141770
v 0.141770 2.600930 0.141770
v -0.200493 2.600930 -0.000000
v 0.232820 2.200744 0.000000
v -0.164629 2.200744 0.164629
v -0.232820 2.200744 -0.000000
v -0.000000 2.200744 0.232820
v 0.000000 2.200744 -0.232820
v 0.164629 2.200744 -0.164629
v -0.164629 2.200744 -0.164629
v 0.164629 2.200744 0.164629
v 0.222379 2.415649 -0.694866
v 0.209446 2.607668 -0.684281
v 0.239714 2.415464 -0.636600
v 0.248265 2.607668 -0.621704
v 0.170411 2.415858 -0.698133
v 0.137749 2.607668 -0.701080
v 0.692988 2.629691 -1.567680
v 0.699794 2.688042 -1.565346
v 0.707693 2.629534 -1.518256
v 0.717096 2.688042 -1.523490
v 0.648908 2.629868 -1.570450
v 0.654605 2.688042 -1.568372
v 0.006746 2.398389 -0.404790
v 0.093393 2.398140 -0.448491
v 0.104723 2.604299 -0.442387
v -0.002010 2.604299 -0.421425
v 0.195017 2.604299 -0.381737
v 0.150864 2.397824 -0.402656
vn 0.8018 0.1578 -0.5764
vn 0.4926 -0.7027 -0.5134
vn 0.6272 0.1356 0.7670
vn 0.5934 -0.6702 0.4459
vn -0.7041 0.0920 -0.7041
vn -0.4698 -0.6802 -0.5627
vn -0.7041 0.0920 0.7041
vn -0.5057 -0.6661 0.5482
vn 0.0089 -0.2726 -0.9621
vn -0.0056 0.2042 0.9789
vn 0.1197 -0.2698 0.9555
vn 0.0277 0.2420 -0.9699
vn -0.9687 -0.2386 -0.0692
vn 0.9768 0.2115 0.0352
vn -0.9753 0.2207 0.0039
vn 0.9216 -0.3125 -0.2301
vn -0.0000 -1.0000 -0.0000
vn -0.0000 0.0265 0.9996
vn -0.0000 0.6196 0.7849
vn -0.5550 0.6196 0.5550
vn 0.7849 0.6196 -0.0000
vn 0.5550 0.6196 0.5550
vn -0.7849 0.6196 -0.0000
vn -0.5550 0.6196 -0.5550
vn -0.0000 0.6196 -0.7849
vn 0.5550 0.6196 -0.5550
vn -0.0000 1.0000 -0.0000
vn 0.0004 0.8016 -0.5979
vn 0.9996 0.0265 -0.0000
vn 0.8666 0.2358 -0.4399
vn -0.7069 0.0265 0.7069
vn -0.8092 0.1311 -0.5728
vn 0.7069 0.0265 0.7069
vn -0.9996 0.0265 -0.0000
vn 0.9968 0.0805 -0.0000
vn -0.7048 0.0805 0.7048
vn -0.9968 0.0805 -0.0000
vn -0.0000 0.0805 0.9968
vn -0.0370 -0.3823 -0.9233
vn 0.8170 -0.1017 -0.5676
vn -0.7764 -0.0180 -0.6300
vn 0.7048 0.0805 0.7048
vn 0.1105 -0.9856 -0.1278
vn -0.0333 0.9985 0.0440
vn 0.6439 -0.7425 0.1845
vn 0.6568 0.6971 0.2875
vn -0.5575 -0.7285 -0.3981
vn -0.6711 0.6569 -0.3437
vn 0.4753 -0.5556 -0.6822
vn 0.5091 0.6065 -0.6107
vn 0.8233 -0.5663 0.0378
vn 0.7889 0.6116 0.0593
vn -0.3751 -0.5447 -0.7501
vn -0.3702 0.6088 -0.7016
vn -0.6880 -0.3781 -0.6194
vn 0.0242 -0.9570 -0.2892
vn -0.0033 0.9999 0.0125
vn -0.6316 0.6948 -0.3441
vn 0.7226 0.6780 0.1352
vn 0.7983 -0.5857 -0.1401
vt 0.625000 0.875000
vt 0.375000 1.000000
vt 0.375000 0.875000
vt 0.625000 0.125000
vt 0.375000 0.250000
vt 0.375000 0.125000
vt 0.250000 0.625000
vt 0.375000 0.750000
vt 0.250000 0.750000
vt 0.625000 0.375000
vt 0.375000 0.375000
vt 0.125000 0.750000
vt 0.125000 0.625000
vt 0.125000 0.500000
vt 0.375000 0.500000
vt 0.625000 0.625000
vt 0.375000 0.625000
vt 0.375000 0.000000
vt 0.750000 0.625000
vt 0.875000 0.750000
vt 0.750000 0.750000
vt 0.625000 0.750000
vt 0.625000 0.500000
vt 0.875000 0.500000
vt 0.750000 0.500000
vt 0.625000 1.000000
vt 0.625000 0.250000
vt 0.625000 0.000000
vt 0.875000 0.625000
vt 0.250000 0.500000
vt 0.625000 0.250000
vt 0.625000 0.250000
vt 0.625000 0.500000
s 1
usemtl Brown
f 10/1/10 8/2/8 11/3/11
f 15/4/15 6/5/6 13/6/13
f 17/7/17 4/8/4 11/9/11
f 6/5/6 12/10/12 9/11/9
f 17/7/17 8/12/8 13/13/13
f 4/8/4 10/1/10 11/3/11
f 6/14/6 17/7/17 13/13/13
f 2/15/2 14/16/14 16/17/16
f 8/18/8 15/4/15 13/6/13
f 27/19/27 20/20/20 19/21/19
f 27/19/27 22/22/22 21/16/21
f 26/23/26 27/19/27 21/16/21
f 24/24/24 27/19/27 25/25/25
f 21/16/21 29/16/29 30/23/30 26/23/26
f 10/1/10 7/26/7 8/2/8
f 15/4/15 5/27/5 6/5/6
f 2/15/2 9/11/9 12/10/12 1/23/1
f 4/8/4 16/17/16 14/16/14 3/22/3
f 6/5/6 5/27/5 12/10/12
f 17/7/17 11/9/11 8/12/8
f 4/8/4 3/22/3 10/1/10
f 35/16/35 14/16/14 1/23/1 40/23/40
f 20/26/20 31/26/31 18/1/18 19/1/19
f 2/15/2 16/17/16 4/8/4 17/7/17
f 2/15/2 1/23/1 14/16/14
f 8/18/8 7/28/7 15/4/15
f 24/27/24 32/27/32 34/4/34 23/4/23
f 27/19/27 23/29/23 20/20/20
f 27/19/27 19/21/19 22/22/22
f 26/23/26 25/25/25 27/19/27
f 24/24/24 23/29/23 27/19/27
f 25/10/25 28/10/28 32/27/32 24/27/24
f 19/1/19 18/1/18 33/22/33 22/22/22
f 22/22/22 33/22/33 29/16/29 21/16/21
f 26/23/26 30/23/30 28/10/28 25/10/25
f 2/15/2 17/7/17 6/14/6 9/30/9
f 37/4/37 15/4/15 7/28/7 36/28/36
f 42/22/42 3/22/3 14/16/14 35/16/35
f 40/23/40 1/23/1 12/10/12 39/10/39
f 38/1/38 10/1/10 3/22/3 42/22/42
f 36/26/36 7/26/7 10/1/10 38/1/38
f 39/10/39 12/10/12 5/27/5 41/27/41
f 41/27/41 5/27/5 15/4/15 37/4/37
f 23/4/23 34/4/34 31/28/31 20/28/20
f 32/27/32 41/27/41 37/4/37 34/4/34
f 58/31/58 57/10/57 44/10/44 48/27/48
f 31/26/31 36/26/36 38/1/38 18/1/18
f 18/1/18 38/1/38 42/22/42 33/22/33
f 56/10/56 55/32/55 47/27/47 43/10/43
f 33/22/33 42/22/42 35/16/35 29/16/29
f 34/4/34 37/4/37 36/28/36 31/28/31
f 29/16/29 35/16/35 40/23/40 30/23/30
f 48/27/48 44/10/44 50/10/50 54/27/54
f 45/23/45 43/10/43 49/10/49 51/23/51
f 57/10/57 59/23/59 46/23/46 44/10/44
f 60/33/60 56/10/56 43/10/43 45/23/45
f 55/32/55 58/31/58 48/27/48 47/27/47
f 59/23/59 60/33/60 45/23/45 46/23/46
f 50/10/50 49/10/49 53/27/53 54/27/54
f 52/23/52 51/23/51 49/10/49 50/10/50
f 47/27/47 48/27/48 54/27/54 53/27/53
f 43/10/43 47/27/47 53/27/53 49/10/49
f 44/10/44 46/23/46 52/23/52 50/10/50
f 46/23/46 45/23/45 51/23/51 52/23/52
f 30/23/30 40/23/40 60/33/60 59/23/59
f 41/27/41 32/27/32 58/31/58 55/32/55
f 40/23/40 39/10/39 56/10/56 60/33/60
f 28/10/28 30/23/30 59/23/59 57/10/57
f 39/10/39 41/27/41 55/32/55 56/10/56
f 32/27/32 28/10/28 57/10/57 58/31/58
o Icosphere
v -0.585724 3.065226 -0.225778
v 0.003834 3.762088 0.439423
v -1.131959 3.954411 -0.037951
v -1.298748 3.450909 -1.069646
v -0.266015 2.947408 -1.229872
v 0.539013 3.139731 -0.297218
v -0.344826 4.578463 0.006676
v -1.149853 4.386139 -0.925979
v -0.614675 3.763782 -1.662620
v 0.521119 3.571459 -1.185245
v 0.687908 4.074961 -0.153551
v -0.025117 4.460644 -0.997419
vn -0.3314 -0.8256 0.4567
vn 0.1498 -0.0901 0.9846
vn -0.7752 0.0901 0.6252
vn -0.8693 -0.3934 -0.2992
vn 0.0444 -0.8631 -0.5030
vn 0.6681 -0.6929 0.2712
vn -0.0444 0.8631 0.5030
vn -0.6681 0.6929 -0.2712
vn -0.1498 0.0901 -0.9846
vn 0.7752 -0.0901 -0.6252
vn 0.8693 0.3934 0.2992
vn 0.3314 0.8256 -0.4567
vt 0.181819 0.000000
vt 0.272728 0.157461
vt 0.090910 0.157461
vt 0.363637 0.000000
vt 0.454546 0.157461
vt 0.909091 0.000000
vt 1.000000 0.157461
vt 0.818182 0.157461
vt 0.727273 0.000000
vt 0.636364 0.157461
vt 0.545455 0.000000
vt 0.363637 0.314921
vt 0.181819 0.314921
vt 0.909091 0.314921
vt 0.727273 0.314921
vt 0.545455 0.314921
vt 0.000000 0.314921
vt 0.272728 0.472382
vt 0.090910 0.472382
vt 0.818182 0.472382
vt 0.636364 0.472382
vt 0.454546 0.472382
s 1
usemtl Green
f 61/34/61 62/35/62 63/36/63
f 62/35/62 61/37/61 66/38/66
f 61/39/61 63/40/63 64/41/64
f 61/42/61 64/41/64 65/43/65
f 61/44/61 65/43/65 66/38/66
f 62/35/62 66/38/66 71/45/71
f 63/36/63 62/35/62 67/46/67
f 64/41/64 63/40/63 68/47/68
f 65/43/65 64/41/64 69/48/69
f 66/38/66 65/43/65 70/49/70
f 62/35/62 71/45/71 67/46/67
f 63/36/63 67/46/67 68/50/68
f 64/41/64 68/47/68 69/48/69
f 65/43/65 69/48/69 70/49/70
f 66/38/66 70/49/70 71/45/71
f 67/46/67 71/45/71 72/51/72
f 68/50/68 67/46/67 72/52/72
f 69/48/69 68/47/68 72/53/72
f 70/49/70 69/48/69 72/54/72
f 71/45/71 70/49/70 72/55/72
o Icosphere.001
v -0.923729 2.890178 0.956663
v 0.060749 3.680595 1.174035
v -1.299759 3.898737 1.493184
v -2.140620 3.327640 0.657652
v -1.299759 2.756542 -0.177880
v 0.060749 2.974685 0.141269
v -0.547699 4.606569 1.009371
v -1.908207 4.388427 0.690222
v -1.908207 3.682517 -0.342544
v -0.547699 3.464374 -0.661693
v 0.293161 4.035471 0.173839
v -0.923729 4.472933 -0.125172
vn 0.0003 -0.8256 0.5643
vn 0.6999 -0.0901 0.7085
vn -0.2597 0.0901 0.9615
vn -0.8792 -0.3934 0.2689
vn -0.2597 -0.8631 -0.4331
vn 0.6999 -0.6929 -0.1733
vn 0.2597 0.8631 0.4331
vn -0.6999 0.6929 0.1733
vn -0.6999 0.0901 -0.7085
vn 0.2597 -0.0901 -0.9615
vn 0.8792 0.3934 -0.2689
vn -0.0003 0.8256 -0.5643
vt 0.181819 0.000000
vt 0.272728 0.157461
vt 0.090910 0.157461
vt 0.363637 0.000000
vt 0.454546 0.157461
vt 0.909091 0.000000
vt 1.000000 0.157461
vt 0.818182 0.157461
vt 0.727273 0.000000
vt 0.636364 0.157461
vt 0.545455 0.000000
vt 0.363637 0.314921
vt 0.181819 0.314921
vt 0.909091 0.314921
vt 0.727273 0.314921
vt 0.545455 0.314921
vt 0.000000 0.314921
vt 0.272728 0.472382
vt 0.090910 0.472382
vt 0.818182 0.472382
vt 0.636364 0.472382
vt 0.454546 0.472382
s 1
usemtl Green
f 73/56/73 74/57/74 75/58/75
f 74/57/74 73/59/73 78/60/78
f 73/61/73 75/62/75 76/63/76
f 73/64/73 76/63/76 77/65/77
f 73/66/73 77/65/77 78/60/78
f 74/57/74 78/60/78 83/67/83
f 75/58/75 74/57/74 79/68/79
f 76/63/76 75/62/75 80/69/80
f 77/65/77 76/63/76 81/70/81
f 78/60/78 77/65/77 82/71/82
f 74/57/74 83/67/83 79/68/79
f 75/58/75 79/68/79 80/72/80
f 76/63/76 80/69/80 81/70/81
f 77/65/77 81/70/81 82/71/82
f 78/60/78 82/71/82 83/67/83
f 79/68/79 83/67/83 84/73/84
f 80/72/80 79/68/79 84/74/84
f 81/70/81 80/69/80 84/75/84
f 82/71/82 81/70/81 84/76/84
f 83/67/83 82/71/82 84/77/84
o Icosphere.002
v 1.045337 3.108875 0.669836
v 0.362369 3.598410 1.676922
v -0.151003 2.841275 0.554407
v 0.538392 3.025667 -0.588176
v 1.477835 3.896774 -0.171784
v 1.369037 4.250740 1.228115
v -0.566684 3.817752 1.041325
v -0.457886 3.463787 -0.358574
v 0.548782 4.116117 -0.807381
v 1.062154 4.873251 0.315135
v 0.372759 4.688860 1.457718
v -0.134186 4.605652 0.199705
vn 0.6010 -0.7625 0.2398
vn -0.0332 -0.3545 0.9345
vn -0.4202 -0.8908 0.1730
vn 0.1586 -0.7140 -0.6819
vn 0.9075 -0.0304 -0.4190
vn 0.8064 0.1896 0.5602
vn -0.9075 0.0304 0.4190
vn -0.8064 -0.1896 -0.5602
vn 0.0332 0.3545 -0.9345
vn 0.4202 0.8908 -0.1730
vn -0.1586 0.7140 0.6819
vn -0.6010 0.7625 -0.2398
vt 0.181819 0.000000
vt 0.272728 0.157461
vt 0.090910 0.157461
vt 0.363637 0.000000
vt 0.454546 0.157461
vt 0.909091 0.000000
vt 1.000000 0.157461
vt 0.818182 0.157461
vt 0.727273 0.000000
vt 0.636364 0.157461
vt 0.545455 0.000000
vt 0.363637 0.314921
vt 0.181819 0.314921
vt 0.909091 0.314921
vt 0.727273 0.314921
vt 0.545455 0.314921
vt 0.000000 0.314921
vt 0.272728 0.472382
vt 0.090910 0.472382
vt 0.818182 0.472382
vt 0.636364 0.472382
vt 0.454546 0.472382
s 1
usemtl Green
f 85/78/85 86/79/86 87/80/87
f 86/79/86 85/81/85 90/82/90
f 85/83/85 87/84/87 88/85/88
f 85/86/85 88/85/88 89/87/89
f 85/88/85 89/87/89 90/82/90
f 86/79/86 90/82/90 95/89/95
f 87/80/87 86/79/86 91/90/91
f 88/85/88 87/84/87 92/91/92
f 89/87/89 88/85/88 93/92/93
f 90/82/90 89/87/89 94/93/94
f 86/79/86 95/89/95 91/90/91
f 87/80/87 91/90/91 92/94/92
f 88/85/88 92/91/92 93/92/93
f 89/87/89 93/92/93 94/93/94
f 90/82/90 94/93/94 95/89/95
f 91/90/91 95/89/95 96/95/96
f 92/94/92 91/90/91 96/96/96
f 93/92/93 92/91/92 96/97/96
f 94/93/94 93/92/93 96/98/96
f 95/89/95 94/93/94 96/99/96
o Icosphere.003
v -0.545138 4.354761 0.970218
v 0.257909 4.868216 0.684621
v -0.774611 4.922523 0.333235
v -1.285088 4.125226 0.249620
v -0.568036 3.578170 0.549335
v 0.385578 4.037367 0.818177
v 0.014271 4.956020 -0.212491
v -0.939344 4.496822 -0.481333
v -0.811675 3.665974 -0.347776
v 0.220845 3.611666 0.003609
v 0.731322 4.408964 0.087224
v -0.008628 4.179429 -0.633374
vn -0.3146 0.1033 0.9436
vn 0.4227 0.7174 0.5537
vn -0.5038 0.8376 0.2113
vn -0.9756 -0.1204 0.1836
vn -0.2458 -0.8414 0.4812
vn 0.5877 -0.3564 0.7264
vn 0.2458 0.8414 -0.4812
vn -0.5877 0.3564 -0.7264
vn -0.4227 -0.7174 -0.5537
vn 0.5038 -0.8376 -0.2113
vn 0.9756 0.1204 -0.1836
vn 0.3146 -0.1033 -0.9436
vt 0.181819 0.000000
vt 0.272728 0.157461
vt 0.090910 0.157461
vt 0.363637 0.000000
vt 0.454546 0.157461
vt 0.909091 0.000000
vt 1.000000 0.157461
vt 0.818182 0.157461
vt 0.727273 0.000000
vt 0.636364 0.157461
vt 0.545455 0.000000
vt 0.363637 0.314921
vt 0.181819 0.314921
vt 0.909091 0.314921
vt 0.727273 0.314921
vt 0.545455 0.314921
vt 0.000000 0.314921
vt 0.272728 0.472382
vt 0.090910 0.472382
vt 0.818182 0.472382
vt 0.636364 0.472382
vt 0.454546 0.472382
s 1
usemtl Green
f 97/100/97 98/101/98 99/102/99
f 98/101/98 97/103/97 102/104/102
f 97/105/97 99/106/99 100/107/100
f 97/108/97 100/107/100 101/109/101
f 97/110/97 101/109/101 102/104/102
f 98/101/98 102/104/102 107/111/107
f 99/102/99 98/101/98 103/112/103
f 100/107/100 99/106/99 104/113/104
f 101/109/101 100/107/100 105/114/105
f 102/104/102 101/109/101 106/115/106
f 98/101/98 107/111/107 103/112/103
f 99/102/99 103/112/103 104/116/104
f 100/107/100 104/113/104 105/114/105
f 101/109/101 105/114/105 106/115/106
f 102/104/102 106/115/106 107/111/107
f 103/112/103 107/111/107 108/117/108
f 104/116/104 103/112/103 108/118/108
f 105/114/105 104/113/104 108/119/108
f 106/115/106 105/114/105 108/120/108
f 107/111/107 106/115/106 108/121/108
o hive
v 0.212601 2.555147 -0.821738
v 0.212601 2.555147 -1.238472
v 0.629334 2.555147 -0.821738
v 0.629334 2.555147 -1.238472
v 0.156985 2.355192 -0.766123
v 0.166940 2.600807 -1.030105
v 0.156985 2.355192 -1.294087
v 0.420967 2.600807 -1.284132
v 0.684950 2.355192 -1.294087
v 0.674995 2.600807 -1.030105
v 0.684950 2.355192 -0.766123
v 0.420967 2.600807 -0.776078
v 0.057407 2.355192 -1.030105
v 0.420967 2.355192 -1.393666
v 0.784528 2.355192 -1.030105
v 0.420967 2.355192 -0.666544
v 0.420967 2.696630 -1.030105
v 0.212601 1.742206 -0.821738
v 0.212601 1.742206 -1.238472
v 0.629334 1.742206 -0.821738
v 0.629334 1.742206 -1.238472
v 0.166940 1.716678 -1.030105
v 0.156985 1.853999 -0.766123
v 0.156985 1.853999 -1.294087
v 0.420967 1.716678 -1.284132
v 0.684950 1.853999 -1.294087
v 0.674995 1.716678 -1.030105
v 0.684950 1.853999 -0.766123
v 0.420967 1.716678 -0.776078
v 0.057407 1.853999 -1.030105
v 0.420967 1.853999 -1.393666
v 0.784528 1.853999 -1.030105
v 0.420967 1.853999 -0.666544
v 0.420967 1.663105 -1.030105
vn -0.5608 0.6091 0.5608
vn -0.5608 0.6091 -0.5608
vn 0.5608 0.6091 0.5608
vn 0.5608 0.6091 -0.5608
vn -0.6937 0.1935 0.6937
vn -0.6855 0.7281 -0.0000
vn -0.6937 0.1935 -0.6937
vn -0.0000 0.7281 -0.6855
vn 0.6937 0.1935 -0.6937
vn 0.6855 0.7281 -0.0000
vn 0.6937 0.1935 0.6937
vn -0.0000 0.7281 0.6855
vn -0.9823 0.1873 -0.0000
vn -0.0000 0.1873 -0.9823
vn 0.9823 0.1873 -0.0000
vn -0.0000 0.1873 0.9823
vn -0.0000 1.0000 -0.0000
vn -0.4490 -0.7725 0.4490
vn -0.4490 -0.7725 -0.4490
vn 0.4490 -0.7725 0.4490
vn 0.4490 -0.7725 -0.4490
vn -0.5528 -0.8333 -0.0000
vn -0.6742 -0.3015 0.6742
vn -0.6742 -0.3015 -0.6742
vn -0.0000 -0.8333 -0.5528
vn 0.6742 -0.3015 -0.6742
vn 0.5528 -0.8333 -0.0000
vn 0.6742 -0.3015 0.6742
vn -0.0000 -0.8333 0.5528
vn -0.9558 -0.2940 -0.0000
vn -0.0000 -0.2940 -0.9558
vn 0.9558 -0.2940 -0.0000
vn -0.0000 -0.2940 0.9558
vn -0.0000 -1.0000 -0.0000
vt 0.500000 0.000000
vt 0.625000 0.000000
vt 0.625000 0.125000
vt 0.500000 0.125000
vt 0.625000 0.250000
vt 0.500000 0.250000
vt 0.625000 0.375000
vt 0.500000 0.375000
vt 0.625000 0.500000
vt 0.500000 0.500000
vt 0.625000 0.625000
vt 0.500000 0.625000
vt 0.625000 0.750000
vt 0.500000 0.750000
vt 0.625000 0.875000
vt 0.500000 0.875000
vt 0.625000 1.000000
vt 0.500000 1.000000
vt 0.750000 0.500000
vt 0.750000 0.625000
vt 0.875000 0.500000
vt 0.875000 0.625000
vt 0.875000 0.750000
vt 0.750000 0.750000
vt 0.375000 0.000000
vt 0.375000 0.125000
vt 0.375000 0.250000
vt 0.375000 0.375000
vt 0.375000 0.500000
vt 0.375000 0.625000
vt 0.375000 0.750000
vt 0.375000 0.875000
vt 0.375000 1.000000
vt 0.125000 0.500000
vt 0.250000 0.500000
vt 0.250000 0.625000
vt 0.125000 0.625000
vt 0.250000 0.750000
vt 0.125000 0.750000
s 1
usemtl hive
f 113/122/113 109/123/109 114/124/114 121/125/121
f 121/125/121 114/124/114 110/126/110 115/127/115
f 115/127/115 110/126/110 116/128/116 122/129/122
f 122/129/122 116/128/116 112/130/112 117/131/117
f 121/125/121 115/127/115 132/127/132 138/125/138
f 117/131/117 112/130/112 118/132/118 123/133/123
f 123/133/123 118/132/118 111/134/111 119/135/119
f 115/127/115 122/129/122 139/129/139 132/127/132
f 122/129/122 117/131/117 134/131/134 139/129/139
f 119/135/119 111/134/111 120/136/120 124/137/124
f 124/137/124 120/136/120 109/138/109 113/139/113
f 117/131/117 123/133/123 140/133/140 134/131/134
f 123/133/123 119/135/119 136/135/136 140/133/140
f 119/135/119 124/137/124 141/137/141 136/135/136
f 124/137/124 113/139/113 131/139/131 141/137/141
f 113/122/113 121/125/121 138/125/138 131/122/131
f 112/130/112 116/140/116 125/141/125 118/132/118
f 116/140/116 110/142/110 114/143/114 125/141/125
f 125/141/125 114/143/114 109/144/109 120/145/120
f 118/132/118 125/141/125 120/145/120 111/134/111
f 126/146/126 131/122/131 138/125/138 130/147/130
f 130/147/130 138/125/138 132/127/132 127/148/127
f 127/148/127 132/127/132 139/129/139 133/149/133
f 133/149/133 139/129/139 134/131/134 129/150/129
f 129/150/129 134/131/134 140/133/140 135/151/135
f 135/151/135 140/133/140 136/135/136 128/152/128
f 128/152/128 136/135/136 141/137/141 137/153/137
f 137/153/137 141/137/141 131/139/131 126/154/126
f 127/155/127 133/156/133 142/157/142 130/158/130
f 133/156/133 129/150/129 135/151/135 142/157/142
f 142/157/142 135/151/135 128/152/128 137/159/137
f 130/158/130 142/157/142 137/159/137 126/160/126
o floor
v -9.600000 0.000000 11.520000
v 9.600000 0.000000 11.520000
v -9.600000 0.000000 -11.520000
v 9.600000 0.000000 -11.520000
vn -0.0000 1.0000 -0.0000
vt 0.000000 0.000000
vt 1.000000 0.000000
vt 1.000000 1.000000
vt 0.000000 1.000000
s 0
usemtl Green
f 143/161/143 144/162/143 146/163/143 145/164/143
